<svg width="96" height="96" xmlns="http://www.w3.org/2000/svg" xmlns:xlink="http://www.w3.org/1999/xlink" xml:space="preserve" overflow="hidden"><g transform="translate(-592 -312)"><path d="M619 378C619 381.866 615.866 385 612 385 608.134 385 605 381.866 605 378 605 374.134 608.134 371 612 371 615.866 371 619 374.134 619 378Z"/><path d="M677 378C677 381.866 673.866 385 670 385 666.134 385 663 381.866 663 378 663 374.134 666.134 371 670 371 673.866 371 677 374.134 677 378Z"/><path d="M596 336 652 336 652 360 596 360Z"/><path d="M660 346 666 346C667.8 346 669.4 347.2 669.8 348.9L671.8 355.8C671.8 355.9 671.9 355.9 671.9 356L660 356 660 346ZM666 342 656 342 656 356 656 362 656 378 660 378C660 372.5 664.5 368 670 368 675.5 368 680 372.5 680 378 682.2 378 684 376.2 684 374L684 364C684 362.7 683.4 361.6 682.4 360.8L677.1 356.8C676.4 356.3 675.9 355.5 675.7 354.7L673.7 347.8C672.7 344.4 669.5 342 666 342Z"/><path d="M652 378 622 378C622 372.5 617.5 368 612 368 606.5 368 602 372.5 602 378L596 378 596 364 652 364 652 378Z"/></g></svg>